<svg width="68" height="49" viewBox="0 0 68 49" fill="none" xmlns="http://www.w3.org/2000/svg">
<path d="M24 3V7" stroke="#33363F" stroke-width="2" stroke-linecap="round"/>
<path d="M24 10.5V14.5" stroke="#33363F" stroke-width="2" stroke-linecap="round"/>
<path d="M24 18V24" stroke="#33363F" stroke-width="2" stroke-linecap="round"/>
<path d="M29 14.6C29 14.0399 29 13.7599 28.891 13.546C28.7951 13.3578 28.6422 13.2049 28.454 13.109C28.2401 13 27.9601 13 27.4 13H5.769C5.4866 13 5.3454 13 5.21503 13.0359C5.09954 13.0677 4.99071 13.12 4.89371 13.1903C4.78423 13.2697 4.69602 13.38 4.51961 13.6005L1.79961 17.0005C1.51424 17.3572 1.37155 17.5356 1.31683 17.7334C1.26856 17.9078 1.26856 18.0922 1.31683 18.2666C1.37155 18.4644 1.51424 18.6428 1.79961 18.9995L4.51961 22.3995C4.69602 22.62 4.78423 22.7303 4.89371 22.8097C4.99071 22.88 5.09954 22.9323 5.21503 22.9641C5.3454 23 5.4866 23 5.769 23H27.4C27.9601 23 28.2401 23 28.454 22.891C28.6422 22.7951 28.7951 22.6422 28.891 22.454C29 22.2401 29 21.9601 29 21.4V14.6Z" stroke="#33363F" stroke-width="2"/>
<path d="M19 6.6C19 6.03995 19 5.75992 19.109 5.54601C19.2049 5.35785 19.3578 5.20487 19.546 5.10899C19.7599 5 20.0399 5 20.6 5H42.231C42.5134 5 42.6546 5 42.785 5.03591C42.9005 5.06773 43.0093 5.12004 43.1063 5.19035C43.2158 5.26971 43.304 5.37997 43.4804 5.60049L46.2004 9.00049C46.4858 9.35721 46.6285 9.53557 46.6832 9.73337C46.7314 9.90785 46.7314 10.0922 46.6832 10.2666C46.6285 10.4644 46.4858 10.6428 46.2004 10.9995L43.4804 14.3995C43.304 14.62 43.2158 14.7303 43.1063 14.8097C43.0093 14.88 42.9005 14.9323 42.785 14.9641C42.6546 15 42.5134 15 42.231 15H20.6C20.0399 15 19.7599 15 19.546 14.891C19.3578 14.7951 19.2049 14.6422 19.109 14.454C19 14.2401 19 13.9601 19 13.4V6.6Z" stroke="#33363F" stroke-width="2"/>
</svg>
